<svg xmlns="http://www.w3.org/2000/svg" viewBox="0 0 1200 600" preserveAspectRatio="xMidYMid slice">
  <defs>
    <linearGradient id="g3" x1="0" y1="0" x2="1" y2="1">
      <stop offset="0%" stop-color="#f9f4ec"/>
      <stop offset="100%" stop-color="#ead9be"/>
    </linearGradient>
  </defs>
  <rect width="1200" height="600" fill="url(#g3)"/>
  <g transform="translate(420 300)">
    <rect x="-160" y="-130" width="320" height="260" rx="20" fill="#ffffff" stroke="#1a1a1a" stroke-width="4"/>
    <circle cx="-100" cy="-70" r="28" fill="#1a6efc"/>
    <text x="-100" y="-62" font-family="Inter, sans-serif" font-size="22" font-weight="700" fill="#ffffff" text-anchor="middle">M</text>
    <rect x="-50" y="-85" width="170" height="12" rx="4" fill="#1a1a1a"/>
    <rect x="-50" y="-65" width="120" height="8" rx="4" fill="#6d7d8c"/>
    <line x1="-130" y1="-20" x2="130" y2="-20" stroke="#e6e6e6" stroke-width="2"/>
    <g fill="#1a1a1a" font-family="Inter, sans-serif" font-size="14">
      <text x="-130" y="10" font-weight="600">Objectifs 2026</text>
      <rect x="-130" y="22" width="260" height="10" rx="5" fill="#e6e6e6"/>
      <rect x="-130" y="22" width="195" height="10" rx="5" fill="#1a6efc"/>
      <text x="130" y="14" font-weight="600" text-anchor="end" fill="#1a6efc">75%</text>
      <text x="-130" y="56" font-weight="600">Competences</text>
      <rect x="-130" y="68" width="260" height="10" rx="5" fill="#e6e6e6"/>
      <rect x="-130" y="68" width="234" height="10" rx="5" fill="#ffbe57"/>
      <text x="130" y="60" font-weight="600" text-anchor="end" fill="#ffbe57">90%</text>
    </g>
  </g>
  <g transform="translate(880 280)">
    <circle cx="0" cy="0" r="100" fill="#ffbe57"/>
    <text x="0" y="-10" font-family="Inter, sans-serif" font-size="46" font-weight="800" fill="#1a1a1a" text-anchor="middle">+50%</text>
    <text x="0" y="20" font-family="Inter, sans-serif" font-size="13" fill="#1a1a1a" text-anchor="middle">de temps</text>
    <text x="0" y="38" font-family="Inter, sans-serif" font-size="13" fill="#1a1a1a" text-anchor="middle">gagne</text>
  </g>
</svg>
