<svg xmlns="http://www.w3.org/2000/svg" viewBox="0 0 1200 600" preserveAspectRatio="xMidYMid slice">
  <defs>
    <linearGradient id="g4" x1="0" y1="0" x2="1" y2="1">
      <stop offset="0%" stop-color="#8b45ff"/>
      <stop offset="100%" stop-color="#1a6efc"/>
    </linearGradient>
  </defs>
  <rect width="1200" height="600" fill="url(#g4)"/>
  <g transform="translate(600 300)">
    <rect x="-220" y="-140" width="440" height="280" rx="22" fill="#ffffff"/>
    <rect x="-220" y="-140" width="440" height="50" rx="22" fill="#1a1a1a"/>
    <circle cx="-200" cy="-115" r="6" fill="#ff7575"/>
    <circle cx="-180" cy="-115" r="6" fill="#ffbe57"/>
    <circle cx="-160" cy="-115" r="6" fill="#50a5ff"/>
    <g transform="translate(0 -50)">
      <circle cx="0" cy="0" r="42" fill="rgba(26, 110, 252, 0.15)"/>
      <polygon points="-12,-18 -12,18 20,0" fill="#1a6efc"/>
    </g>
    <rect x="-180" y="20" width="360" height="14" rx="6" fill="#1a1a1a"/>
    <rect x="-180" y="44" width="240" height="10" rx="5" fill="#6d7d8c"/>
    <g transform="translate(0 85)">
      <rect x="-180" y="0" width="360" height="14" rx="7" fill="#f3f3f3"/>
      <rect x="-180" y="0" width="252" height="14" rx="7" fill="#1a6efc"/>
      <text x="180" y="-2" font-family="Inter, sans-serif" font-size="11" font-weight="600" fill="#1a6efc" text-anchor="end">70%</text>
    </g>
  </g>
  <g fill="#ffffff" opacity="0.18">
    <circle cx="150" cy="120" r="35"/>
    <circle cx="1050" cy="100" r="55"/>
    <circle cx="100" cy="480" r="45"/>
  </g>
</svg>
