<svg xmlns="http://www.w3.org/2000/svg" viewBox="0 0 1200 600" preserveAspectRatio="xMidYMid slice">
  <defs>
    <linearGradient id="g5" x1="0" y1="0" x2="1" y2="1">
      <stop offset="0%" stop-color="#fff5f5"/>
      <stop offset="50%" stop-color="#f9f4ec"/>
      <stop offset="100%" stop-color="#eef4ff"/>
    </linearGradient>
  </defs>
  <rect width="1200" height="600" fill="url(#g5)"/>
  <g transform="translate(600 300)">
    <g transform="translate(-220 -90)">
      <rect x="0" y="0" width="160" height="160" rx="18" fill="#ff7575"/>
      <g transform="translate(80 80)" fill="#ffffff">
        <rect x="-32" y="-20" width="64" height="44" rx="4"/>
        <rect x="-24" y="-32" width="48" height="14" rx="2"/>
        <circle cx="-12" cy="2" r="4"/>
        <circle cx="12" cy="2" r="4"/>
      </g>
      <text x="80" y="145" font-family="Inter, sans-serif" font-size="14" font-weight="700" fill="#ffffff" text-anchor="middle">Retail</text>
    </g>
    <g transform="translate(-40 -90)">
      <rect x="0" y="0" width="160" height="160" rx="18" fill="#ffbe57"/>
      <g transform="translate(80 80)" fill="#1a1a1a">
        <path d="M-30 -10 Q-30 -28 -12 -28 L12 -28 Q30 -28 30 -10 L30 14 L-30 14 Z"/>
        <rect x="-26" y="14" width="52" height="6" rx="2"/>
      </g>
      <text x="80" y="145" font-family="Inter, sans-serif" font-size="14" font-weight="700" fill="#1a1a1a" text-anchor="middle">Hotellerie</text>
    </g>
    <g transform="translate(140 -90)">
      <rect x="0" y="0" width="160" height="160" rx="18" fill="#1a6efc"/>
      <g transform="translate(80 80)" fill="#ffffff">
        <rect x="-8" y="-28" width="16" height="56" rx="2"/>
        <rect x="-28" y="-8" width="56" height="16" rx="2"/>
      </g>
      <text x="80" y="145" font-family="Inter, sans-serif" font-size="14" font-weight="700" fill="#ffffff" text-anchor="middle">Sante</text>
    </g>
    <g transform="translate(-220 90)">
      <rect x="0" y="0" width="160" height="160" rx="18" fill="#1a1a1a"/>
      <g transform="translate(80 80)" fill="#ffbe57">
        <circle cx="-18" cy="0" r="12"/>
        <circle cx="18" cy="0" r="12"/>
        <rect x="-30" y="12" width="60" height="6" rx="3"/>
        <rect x="-22" y="-28" width="44" height="20" rx="3"/>
      </g>
      <text x="80" y="145" font-family="Inter, sans-serif" font-size="14" font-weight="700" fill="#ffffff" text-anchor="middle">Industrie</text>
    </g>
    <g transform="translate(70 90)">
      <rect x="0" y="0" width="350" height="160" rx="18" fill="#ffffff" stroke="#1a1a1a" stroke-width="3"/>
      <text x="175" y="50" font-family="Parkinsans, Inter, sans-serif" font-size="22" font-weight="800" fill="#1a1a1a" text-anchor="middle">4 secteurs</text>
      <text x="175" y="78" font-family="Inter, sans-serif" font-size="13" fill="#6d7d8c" text-anchor="middle">4 strategies SIRH</text>
      <line x1="40" y1="100" x2="310" y2="100" stroke="#e6e6e6" stroke-width="2"/>
      <text x="175" y="130" font-family="Inter, sans-serif" font-size="13" fill="#1a1a1a" text-anchor="middle">Decouvrir &gt;</text>
    </g>
  </g>
</svg>
