<svg xmlns="http://www.w3.org/2000/svg" viewBox="0 0 1200 600" preserveAspectRatio="xMidYMid slice">
  <defs>
    <linearGradient id="g6" x1="0" y1="0" x2="1" y2="1">
      <stop offset="0%" stop-color="#1a1a1a"/>
      <stop offset="100%" stop-color="#125ddb"/>
    </linearGradient>
    <linearGradient id="bar" x1="0" y1="1" x2="0" y2="0">
      <stop offset="0%" stop-color="#1a6efc"/>
      <stop offset="100%" stop-color="#50a5ff"/>
    </linearGradient>
  </defs>
  <rect width="1200" height="600" fill="url(#g6)"/>
  <g transform="translate(600 320)">
    <g transform="translate(-260 0)">
      <rect x="-30" y="-70" width="60" height="140" rx="8" fill="url(#bar)"/>
      <text x="0" y="-85" font-family="Inter, sans-serif" font-size="14" font-weight="700" fill="#ffffff" text-anchor="middle">2023</text>
    </g>
    <g transform="translate(-110 -30)">
      <rect x="-30" y="-100" width="60" height="170" rx="8" fill="url(#bar)"/>
      <text x="0" y="-115" font-family="Inter, sans-serif" font-size="14" font-weight="700" fill="#ffffff" text-anchor="middle">2024</text>
    </g>
    <g transform="translate(40 -70)">
      <rect x="-30" y="-140" width="60" height="210" rx="8" fill="url(#bar)"/>
      <text x="0" y="-155" font-family="Inter, sans-serif" font-size="14" font-weight="700" fill="#ffffff" text-anchor="middle">2025</text>
    </g>
    <g transform="translate(190 -120)">
      <rect x="-30" y="-180" width="60" height="250" rx="8" fill="#ffbe57"/>
      <text x="0" y="-195" font-family="Inter, sans-serif" font-size="14" font-weight="800" fill="#ffbe57" text-anchor="middle">2026</text>
    </g>
    <line x1="-300" y1="80" x2="240" y2="80" stroke="#ffffff" stroke-width="2" opacity="0.3"/>
  </g>
  <g transform="translate(950 130)" fill="#ffffff">
    <rect x="-90" y="-30" width="180" height="60" rx="30" fill="rgba(255, 190, 87, 0.2)" stroke="#ffbe57" stroke-width="2"/>
    <text x="0" y="6" font-family="Parkinsans, Inter, sans-serif" font-size="20" font-weight="800" fill="#ffbe57" text-anchor="middle">+ IA 2026</text>
  </g>
  <g fill="#ffffff" opacity="0.06">
    <circle cx="200" cy="500" r="180"/>
    <circle cx="100" cy="100" r="100"/>
  </g>
</svg>
